<?xml version="1.0" encoding="UTF-8" standalone="no"?>
<!-- Created with Inkscape (http://www.inkscape.org/) -->

<svg
   xmlns:dc="http://purl.org/dc/elements/1.1/"
   xmlns:cc="http://creativecommons.org/ns#"
   xmlns:rdf="http://www.w3.org/1999/02/22-rdf-syntax-ns#"
   xmlns:svg="http://www.w3.org/2000/svg"
   xmlns="http://www.w3.org/2000/svg"
   xmlns:sodipodi="http://sodipodi.sourceforge.net/DTD/sodipodi-0.dtd"
   xmlns:inkscape="http://www.inkscape.org/namespaces/inkscape"
   width="210mm"
   height="297mm"
   viewBox="0 0 744.09448819 1052.3622047"
   id="svg2"
   version="1.1"
   inkscape:version="0.91 r13725"
   sodipodi:docname="diffuspy_logo.svg">
  <defs
     id="defs4">
    <clipPath
       id="clipPath4199"
       clipPathUnits="userSpaceOnUse">
      <path
         inkscape:connector-curvature="0"
         id="path4201"
         d="m 90.40824,37.8576 291.50352,0 0,265.0032 -291.50352,0 0,-265.0032 z" />
    </clipPath>
    <clipPath
       id="clipPath4231"
       clipPathUnits="userSpaceOnUse">
      <path
         inkscape:connector-curvature="0"
         id="path4233"
         d="m 90.40824,37.8576 291.50352,0 0,265.0032 -291.50352,0 0,-265.0032 z" />
    </clipPath>
    <clipPath
       id="clipPath4263"
       clipPathUnits="userSpaceOnUse">
      <path
         inkscape:connector-curvature="0"
         id="path4265"
         d="m 90.40824,37.8576 291.50352,0 0,265.0032 -291.50352,0 0,-265.0032 z" />
    </clipPath>
    <clipPath
       id="clipPath4367"
       clipPathUnits="userSpaceOnUse">
      <path
         inkscape:connector-curvature="0"
         id="path4369"
         d="m 90.40824,37.8576 291.50352,0 0,265.0032 -291.50352,0 0,-265.0032 z" />
    </clipPath>
    <clipPath
       id="clipPath4377"
       clipPathUnits="userSpaceOnUse">
      <path
         inkscape:connector-curvature="0"
         id="path4379"
         d="m -0.5,-0.5 1,0 0,1 -1,0 0,-1 z" />
    </clipPath>
    <clipPath
       id="clipPath4389"
       clipPathUnits="userSpaceOnUse">
      <path
         inkscape:connector-curvature="0"
         id="path4391"
         d="m -0.5,-0.5 1,0 0,1 -1,0 0,-1 z" />
    </clipPath>
    <clipPath
       id="clipPath4401"
       clipPathUnits="userSpaceOnUse">
      <path
         inkscape:connector-curvature="0"
         id="path4403"
         d="m -0.5,-0.5 1,0 0,1 -1,0 0,-1 z" />
    </clipPath>
    <clipPath
       id="clipPath4413"
       clipPathUnits="userSpaceOnUse">
      <path
         inkscape:connector-curvature="0"
         id="path4415"
         d="m -0.5,-0.5 1,0 0,1 -1,0 0,-1 z" />
    </clipPath>
    <clipPath
       id="clipPath4425"
       clipPathUnits="userSpaceOnUse">
      <path
         inkscape:connector-curvature="0"
         id="path4427"
         d="m -0.5,-0.5 1,0 0,1 -1,0 0,-1 z" />
    </clipPath>
    <clipPath
       id="clipPath4437"
       clipPathUnits="userSpaceOnUse">
      <path
         inkscape:connector-curvature="0"
         id="path4439"
         d="m -0.5,-0.5 1,0 0,1 -1,0 0,-1 z" />
    </clipPath>
    <clipPath
       id="clipPath4449"
       clipPathUnits="userSpaceOnUse">
      <path
         inkscape:connector-curvature="0"
         id="path4451"
         d="m -0.5,-0.5 1,0 0,1 -1,0 0,-1 z" />
    </clipPath>
    <clipPath
       id="clipPath4461"
       clipPathUnits="userSpaceOnUse">
      <path
         inkscape:connector-curvature="0"
         id="path4463"
         d="m -0.5,-0.5 1,0 0,1 -1,0 0,-1 z" />
    </clipPath>
    <clipPath
       id="clipPath4473"
       clipPathUnits="userSpaceOnUse">
      <path
         inkscape:connector-curvature="0"
         id="path4475"
         d="m -0.5,-0.5 1,0 0,1 -1,0 0,-1 z" />
    </clipPath>
    <clipPath
       id="clipPath4483"
       clipPathUnits="userSpaceOnUse">
      <path
         inkscape:connector-curvature="0"
         id="path4485"
         d="m 90.40824,37.8576 291.50352,0 0,265.0032 -291.50352,0 0,-265.0032 z" />
    </clipPath>
    <clipPath
       id="clipPath4493"
       clipPathUnits="userSpaceOnUse">
      <path
         inkscape:connector-curvature="0"
         id="path4495"
         d="m -0.5,-0.5 1,0 0,1 -1,0 0,-1 z" />
    </clipPath>
    <clipPath
       id="clipPath4505"
       clipPathUnits="userSpaceOnUse">
      <path
         inkscape:connector-curvature="0"
         id="path4507"
         d="m -0.5,-0.5 1,0 0,1 -1,0 0,-1 z" />
    </clipPath>
    <clipPath
       id="clipPath4517"
       clipPathUnits="userSpaceOnUse">
      <path
         inkscape:connector-curvature="0"
         id="path4519"
         d="m -0.5,-0.5 1,0 0,1 -1,0 0,-1 z" />
    </clipPath>
    <clipPath
       id="clipPath4529"
       clipPathUnits="userSpaceOnUse">
      <path
         inkscape:connector-curvature="0"
         id="path4531"
         d="m -0.5,-0.5 1,0 0,1 -1,0 0,-1 z" />
    </clipPath>
    <clipPath
       id="clipPath4541"
       clipPathUnits="userSpaceOnUse">
      <path
         inkscape:connector-curvature="0"
         id="path4543"
         d="m -0.5,-0.5 1,0 0,1 -1,0 0,-1 z" />
    </clipPath>
    <clipPath
       id="clipPath4553"
       clipPathUnits="userSpaceOnUse">
      <path
         inkscape:connector-curvature="0"
         id="path4555"
         d="m -0.5,-0.5 1,0 0,1 -1,0 0,-1 z" />
    </clipPath>
    <clipPath
       id="clipPath4565"
       clipPathUnits="userSpaceOnUse">
      <path
         inkscape:connector-curvature="0"
         id="path4567"
         d="m -0.5,-0.5 1,0 0,1 -1,0 0,-1 z" />
    </clipPath>
    <clipPath
       id="clipPath4577"
       clipPathUnits="userSpaceOnUse">
      <path
         inkscape:connector-curvature="0"
         id="path4579"
         d="m -0.5,-0.5 1,0 0,1 -1,0 0,-1 z" />
    </clipPath>
    <clipPath
       id="clipPath4589"
       clipPathUnits="userSpaceOnUse">
      <path
         inkscape:connector-curvature="0"
         id="path4591"
         d="m -0.5,-0.5 1,0 0,1 -1,0 0,-1 z" />
    </clipPath>
    <clipPath
       id="clipPath4609"
       clipPathUnits="userSpaceOnUse">
      <path
         inkscape:connector-curvature="0"
         id="path4611"
         d="m 90.40824,37.8576 291.50352,0 0,265.0032 -291.50352,0 0,-265.0032 z" />
    </clipPath>
    <clipPath
       id="clipPath4621"
       clipPathUnits="userSpaceOnUse">
      <path
         inkscape:connector-curvature="0"
         id="path4623"
         d="m 90.40824,37.8576 291.50352,0 0,265.0032 -291.50352,0 0,-265.0032 z" />
    </clipPath>
    <clipPath
       id="clipPath4633"
       clipPathUnits="userSpaceOnUse">
      <path
         inkscape:connector-curvature="0"
         id="path4635"
         d="m 90.40824,37.8576 291.50352,0 0,265.0032 -291.50352,0 0,-265.0032 z" />
    </clipPath>
    <clipPath
       id="clipPath4645"
       clipPathUnits="userSpaceOnUse">
      <path
         inkscape:connector-curvature="0"
         id="path4647"
         d="m 90.40824,37.8576 291.50352,0 0,265.0032 -291.50352,0 0,-265.0032 z" />
    </clipPath>
    <clipPath
       id="clipPath4657"
       clipPathUnits="userSpaceOnUse">
      <path
         inkscape:connector-curvature="0"
         id="path4659"
         d="m 90.40824,37.8576 291.50352,0 0,265.0032 -291.50352,0 0,-265.0032 z" />
    </clipPath>
    <clipPath
       id="clipPath4669"
       clipPathUnits="userSpaceOnUse">
      <path
         inkscape:connector-curvature="0"
         id="path4671"
         d="m 90.40824,37.8576 291.50352,0 0,265.0032 -291.50352,0 0,-265.0032 z" />
    </clipPath>
    <clipPath
       id="clipPath4681"
       clipPathUnits="userSpaceOnUse">
      <path
         inkscape:connector-curvature="0"
         id="path4683"
         d="m 90.40824,37.8576 291.50352,0 0,265.0032 -291.50352,0 0,-265.0032 z" />
    </clipPath>
    <clipPath
       id="clipPath4693"
       clipPathUnits="userSpaceOnUse">
      <path
         inkscape:connector-curvature="0"
         id="path4695"
         d="m 90.40824,37.8576 291.50352,0 0,265.0032 -291.50352,0 0,-265.0032 z" />
    </clipPath>
    <clipPath
       id="clipPath4705"
       clipPathUnits="userSpaceOnUse">
      <path
         inkscape:connector-curvature="0"
         id="path4707"
         d="m 90.40824,37.8576 291.50352,0 0,265.0032 -291.50352,0 0,-265.0032 z" />
    </clipPath>
    <clipPath
       id="clipPath4717"
       clipPathUnits="userSpaceOnUse">
      <path
         inkscape:connector-curvature="0"
         id="path4719"
         d="m 90.40824,37.8576 291.50352,0 0,265.0032 -291.50352,0 0,-265.0032 z" />
    </clipPath>
    <clipPath
       id="clipPath4729"
       clipPathUnits="userSpaceOnUse">
      <path
         inkscape:connector-curvature="0"
         id="path4731"
         d="m 90.40824,37.8576 291.50352,0 0,265.0032 -291.50352,0 0,-265.0032 z" />
    </clipPath>
    <clipPath
       id="clipPath4741"
       clipPathUnits="userSpaceOnUse">
      <path
         inkscape:connector-curvature="0"
         id="path4743"
         d="m 90.40824,37.8576 291.50352,0 0,265.0032 -291.50352,0 0,-265.0032 z" />
    </clipPath>
    <clipPath
       id="clipPath4753"
       clipPathUnits="userSpaceOnUse">
      <path
         inkscape:connector-curvature="0"
         id="path4755"
         d="m 90.40824,37.8576 291.50352,0 0,265.0032 -291.50352,0 0,-265.0032 z" />
    </clipPath>
    <clipPath
       id="clipPath4765"
       clipPathUnits="userSpaceOnUse">
      <path
         inkscape:connector-curvature="0"
         id="path4767"
         d="m 90.40824,37.8576 291.50352,0 0,265.0032 -291.50352,0 0,-265.0032 z" />
    </clipPath>
    <clipPath
       id="clipPath4777"
       clipPathUnits="userSpaceOnUse">
      <path
         inkscape:connector-curvature="0"
         id="path4779"
         d="m 90.40824,37.8576 291.50352,0 0,265.0032 -291.50352,0 0,-265.0032 z" />
    </clipPath>
    <clipPath
       id="clipPath4789"
       clipPathUnits="userSpaceOnUse">
      <path
         inkscape:connector-curvature="0"
         id="path4791"
         d="m 90.40824,37.8576 291.50352,0 0,265.0032 -291.50352,0 0,-265.0032 z" />
    </clipPath>
    <clipPath
       id="clipPath4801"
       clipPathUnits="userSpaceOnUse">
      <path
         inkscape:connector-curvature="0"
         id="path4803"
         d="m 90.40824,37.8576 291.50352,0 0,265.0032 -291.50352,0 0,-265.0032 z" />
    </clipPath>
    <clipPath
       id="clipPath4813"
       clipPathUnits="userSpaceOnUse">
      <path
         inkscape:connector-curvature="0"
         id="path4815"
         d="m 90.40824,37.8576 291.50352,0 0,265.0032 -291.50352,0 0,-265.0032 z" />
    </clipPath>
  </defs>
  <sodipodi:namedview
     id="base"
     pagecolor="#ffffff"
     bordercolor="#666666"
     borderopacity="1.0"
     inkscape:pageopacity="0.0"
     inkscape:pageshadow="2"
     inkscape:zoom="1.4"
     inkscape:cx="296.88531"
     inkscape:cy="502.46571"
     inkscape:document-units="px"
     inkscape:current-layer="layer1"
     showgrid="false"
     inkscape:window-width="1920"
     inkscape:window-height="1027"
     inkscape:window-x="1912"
     inkscape:window-y="1072"
     inkscape:window-maximized="1" />
  <metadata
     id="metadata7">
    <rdf:RDF>
      <cc:Work
         rdf:about="">
        <dc:format>image/svg+xml</dc:format>
        <dc:type
           rdf:resource="http://purl.org/dc/dcmitype/StillImage" />
        <dc:title></dc:title>
      </cc:Work>
    </rdf:RDF>
  </metadata>
  <g
     inkscape:label="Layer 1"
     inkscape:groupmode="layer"
     id="layer1">
    <text
       xml:space="preserve"
       style="font-style:normal;font-weight:normal;font-size:40px;line-height:125%;font-family:sans-serif;letter-spacing:0px;word-spacing:0px;fill:#3776ab;fill-opacity:1;stroke:none;stroke-width:1px;stroke-linecap:butt;stroke-linejoin:miter;stroke-opacity:1"
       x="232.85713"
       y="620.21936"
       id="text4158"
       sodipodi:linespacing="125%"><tspan
         sodipodi:role="line"
         id="tspan4160"
         x="232.85713"
         y="620.21936"
         style="font-style:normal;font-variant:normal;font-weight:bold;font-stretch:normal;font-family:Futura;-inkscape-font-specification:'Futura Bold';fill:#3776ab;fill-opacity:1"><tspan
   style="fill:#000000;fill-opacity:1"
   id="tspan4414">diffus</tspan>py</tspan></text>
    <g
       id="g4195"
       transform="matrix(0.50842184,0,0,-0.50842184,204.08864,608.39186)"
       style="stroke:#000000;stroke-opacity:1;stroke-width:9.8343533;stroke-miterlimit:4;stroke-dasharray:none;fill:none;fill-opacity:1;stroke-linecap:round;stroke-linejoin:round">
      <g
         id="g4197"
         clip-path="url(#clipPath4199)"
         style="stroke:#000000;stroke-opacity:1;stroke-width:9.8343533;stroke-miterlimit:4;stroke-dasharray:none;fill:none;fill-opacity:1;stroke-linecap:round;stroke-linejoin:round">
        <path
           d="m 115.704,60.853745 109.50545,0"
           style="fill:none;stroke:#000000;stroke-width:9.8343533;stroke-linecap:round;stroke-linejoin:round;stroke-miterlimit:4;stroke-dasharray:none;stroke-opacity:1;fill-opacity:1"
           id="path4203"
           inkscape:connector-curvature="0" />
        <path
           d="m 115.704,60.853745 0,109.505455"
           style="fill:none;stroke:#000000;stroke-width:9.8343533;stroke-linecap:round;stroke-linejoin:round;stroke-miterlimit:4;stroke-dasharray:none;stroke-opacity:1;fill-opacity:1"
           id="path4205"
           inkscape:connector-curvature="0" />
        <path
           d="m 334.71491,60.853745 -109.50546,0"
           style="fill:none;stroke:#000000;stroke-width:9.8343533;stroke-linecap:round;stroke-linejoin:round;stroke-miterlimit:4;stroke-dasharray:none;stroke-opacity:1;fill-opacity:1"
           id="path4207"
           inkscape:connector-curvature="0" />
        <path
           d="m 334.71491,60.853745 0,109.505455"
           style="fill:none;stroke:#000000;stroke-width:9.8343533;stroke-linecap:round;stroke-linejoin:round;stroke-miterlimit:4;stroke-dasharray:none;stroke-opacity:1;fill-opacity:1"
           id="path4209"
           inkscape:connector-curvature="0" />
        <path
           d="m 334.71491,279.86466 0,-109.50546"
           style="fill:none;stroke:#000000;stroke-width:9.8343533;stroke-linecap:round;stroke-linejoin:round;stroke-miterlimit:4;stroke-dasharray:none;stroke-opacity:1;fill-opacity:1"
           id="path4211"
           inkscape:connector-curvature="0" />
        <path
           d="m 334.71491,279.86466 -109.50546,0"
           style="fill:none;stroke:#000000;stroke-width:9.8343533;stroke-linecap:round;stroke-linejoin:round;stroke-miterlimit:4;stroke-dasharray:none;stroke-opacity:1;fill-opacity:1"
           id="path4213"
           inkscape:connector-curvature="0" />
        <path
           d="m 115.704,279.86466 109.50545,0"
           style="fill:none;stroke:#000000;stroke-width:9.8343533;stroke-linecap:round;stroke-linejoin:round;stroke-miterlimit:4;stroke-dasharray:none;stroke-opacity:1;fill-opacity:1"
           id="path4215"
           inkscape:connector-curvature="0" />
        <path
           d="m 115.704,279.86466 0,-109.50546"
           style="fill:none;stroke:#000000;stroke-width:9.8343533;stroke-linecap:round;stroke-linejoin:round;stroke-miterlimit:4;stroke-dasharray:none;stroke-opacity:1;fill-opacity:1"
           id="path4217"
           inkscape:connector-curvature="0" />
        <path
           d="M 225.20945,60.853745 203.30836,192.26029"
           style="fill:none;stroke:#000000;stroke-width:9.8343533;stroke-linecap:round;stroke-linejoin:round;stroke-miterlimit:4;stroke-dasharray:none;stroke-opacity:1;fill-opacity:1"
           id="path4219"
           inkscape:connector-curvature="0" />
        <path
           d="M 334.71491,170.3592 203.30836,192.26029"
           style="fill:none;stroke:#000000;stroke-width:9.8343533;stroke-linecap:round;stroke-linejoin:round;stroke-miterlimit:4;stroke-dasharray:none;stroke-opacity:1;fill-opacity:1"
           id="path4221"
           inkscape:connector-curvature="0" />
        <path
           d="M 225.20945,279.86466 203.30836,192.26029"
           style="fill:none;stroke:#000000;stroke-width:9.8343533;stroke-linecap:round;stroke-linejoin:round;stroke-miterlimit:4;stroke-dasharray:none;stroke-opacity:1;fill-opacity:1"
           id="path4223"
           inkscape:connector-curvature="0" />
        <path
           d="m 115.704,170.3592 87.60436,21.90109"
           style="fill:none;stroke:#000000;stroke-width:9.8343533;stroke-linecap:round;stroke-linejoin:round;stroke-miterlimit:4;stroke-dasharray:none;stroke-opacity:1;fill-opacity:1"
           id="path4225"
           inkscape:connector-curvature="0" />
      </g>
    </g>
    <g
       id="g4227"
       transform="matrix(0.53358005,0,0,-0.47275943,201.17773,606.22167)"
       style="stroke:#3776ab;stroke-width:9.95520306;stroke-linecap:round;stroke-linejoin:round;stroke-miterlimit:4;stroke-dasharray:none;stroke-opacity:1">
      <g
         id="g4229"
         clip-path="url(#clipPath4231)"
         style="stroke:#3776ab;stroke-width:9.95520306;stroke-linecap:round;stroke-linejoin:round;stroke-miterlimit:4;stroke-dasharray:none;stroke-opacity:1">
        <path
           d="m 115.704,60.853745 120.456,0"
           style="fill:none;stroke:#3776ab;stroke-width:9.95520306;stroke-linecap:round;stroke-linejoin:round;stroke-miterlimit:4;stroke-dasharray:none;stroke-opacity:1"
           id="path4235"
           inkscape:connector-curvature="0" />
        <path
           d="m 115.704,60.853745 0,106.220295"
           style="fill:none;stroke:#3776ab;stroke-width:9.95520306;stroke-linecap:round;stroke-linejoin:round;stroke-miterlimit:4;stroke-dasharray:none;stroke-opacity:1"
           id="path4237"
           inkscape:connector-curvature="0" />
        <path
           d="m 356.616,60.853745 -120.456,0"
           style="fill:none;stroke:#3776ab;stroke-width:9.95520306;stroke-linecap:round;stroke-linejoin:round;stroke-miterlimit:4;stroke-dasharray:none;stroke-opacity:1"
           id="path4239"
           inkscape:connector-curvature="0" />
        <path
           d="m 356.616,60.853745 0,106.220295"
           style="fill:none;stroke:#3776ab;stroke-width:9.95520306;stroke-linecap:round;stroke-linejoin:round;stroke-miterlimit:4;stroke-dasharray:none;stroke-opacity:1"
           id="path4241"
           inkscape:connector-curvature="0" />
        <path
           d="m 356.616,273.29433 0,-106.22029"
           style="fill:none;stroke:#3776ab;stroke-width:9.95520306;stroke-linecap:round;stroke-linejoin:round;stroke-miterlimit:4;stroke-dasharray:none;stroke-opacity:1"
           id="path4243"
           inkscape:connector-curvature="0" />
        <path
           d="m 356.616,273.29433 -120.456,0"
           style="fill:none;stroke:#3776ab;stroke-width:9.95520306;stroke-linecap:round;stroke-linejoin:round;stroke-miterlimit:4;stroke-dasharray:none;stroke-opacity:1"
           id="path4245"
           inkscape:connector-curvature="0" />
        <path
           d="m 115.704,273.29433 120.456,0"
           style="fill:none;stroke:#3776ab;stroke-width:9.95520306;stroke-linecap:round;stroke-linejoin:round;stroke-miterlimit:4;stroke-dasharray:none;stroke-opacity:1"
           id="path4247"
           inkscape:connector-curvature="0" />
        <path
           d="m 115.704,273.29433 0,-106.22029"
           style="fill:none;stroke:#3776ab;stroke-width:9.95520306;stroke-linecap:round;stroke-linejoin:round;stroke-miterlimit:4;stroke-dasharray:none;stroke-opacity:1"
           id="path4249"
           inkscape:connector-curvature="0" />
        <path
           d="M 236.16,60.853745 212.0688,188.31809"
           style="fill:none;stroke:#3776ab;stroke-width:9.95520306;stroke-linecap:round;stroke-linejoin:round;stroke-miterlimit:4;stroke-dasharray:none;stroke-opacity:1"
           id="path4251"
           inkscape:connector-curvature="0" />
        <path
           d="M 356.616,167.07404 212.0688,188.31809"
           style="fill:none;stroke:#3776ab;stroke-width:9.95520306;stroke-linecap:round;stroke-linejoin:round;stroke-miterlimit:4;stroke-dasharray:none;stroke-opacity:1"
           id="path4253"
           inkscape:connector-curvature="0" />
        <path
           d="M 236.16,273.29433 212.0688,188.31809"
           style="fill:none;stroke:#3776ab;stroke-width:9.95520306;stroke-linecap:round;stroke-linejoin:round;stroke-miterlimit:4;stroke-dasharray:none;stroke-opacity:1"
           id="path4255"
           inkscape:connector-curvature="0" />
        <path
           d="m 115.704,167.07404 96.3648,21.24405"
           style="fill:none;stroke:#3776ab;stroke-width:9.95520306;stroke-linecap:round;stroke-linejoin:round;stroke-miterlimit:4;stroke-dasharray:none;stroke-opacity:1"
           id="path4257"
           inkscape:connector-curvature="0" />
      </g>
    </g>
    <g
       id="g4363"
       transform="matrix(0.50842184,0,0,-0.50842184,204.08864,608.39186)">
      <g
         id="g4365"
         clip-path="url(#clipPath4367)">
        <g
           id="g4371"
           transform="translate(115.704,60.853745)">
          <g
             id="g4373">
            <g
               id="g4375"
               clip-path="url(#clipPath4377)">
              <path
                 d="M 0,0 C 0,0 0,0 0,0 0,0 0,0 0,0 0,0 0,0 0,0 0,0 0,0 0,0 0,0 0,0 0,0 0,0 0,0 0,0 0,0 0,0 0,0 0,0 0,0 0,0 Z"
                 style="fill:#ff0000;fill-opacity:1;fill-rule:nonzero;stroke:#ff0000;stroke-width:2.45858836;stroke-linecap:butt;stroke-linejoin:round;stroke-miterlimit:10;stroke-dasharray:none;stroke-opacity:1"
                 id="path4381"
                 inkscape:connector-curvature="0" />
            </g>
          </g>
          <g
             id="g4383"
             transform="translate(219.01091,0)">
            <g
               id="g4385">
              <g
                 id="g4387"
                 clip-path="url(#clipPath4389)">
                <path
                   d="M 0,0 C 0,0 0,0 0,0 0,0 0,0 0,0 0,0 0,0 0,0 0,0 0,0 0,0 0,0 0,0 0,0 0,0 0,0 0,0 0,0 0,0 0,0 0,0 0,0 0,0 Z"
                   style="fill:#ff0000;fill-opacity:1;fill-rule:nonzero;stroke:#ff0000;stroke-width:2.45858836;stroke-linecap:butt;stroke-linejoin:round;stroke-miterlimit:10;stroke-dasharray:none;stroke-opacity:1"
                   id="path4393"
                   inkscape:connector-curvature="0" />
              </g>
            </g>
            <g
               id="g4395"
               transform="translate(0,219.01091)">
              <g
                 id="g4397">
                <g
                   id="g4399"
                   clip-path="url(#clipPath4401)">
                  <path
                     d="M 0,0 C 0,0 0,0 0,0 0,0 0,0 0,0 0,0 0,0 0,0 0,0 0,0 0,0 0,0 0,0 0,0 0,0 0,0 0,0 0,0 0,0 0,0 0,0 0,0 0,0 Z"
                     style="fill:#ff0000;fill-opacity:1;fill-rule:nonzero;stroke:#ff0000;stroke-width:2.45858836;stroke-linecap:butt;stroke-linejoin:round;stroke-miterlimit:10;stroke-dasharray:none;stroke-opacity:1"
                     id="path4405"
                     inkscape:connector-curvature="0" />
                </g>
              </g>
              <g
                 id="g4407"
                 transform="translate(-219.01091,0)">
                <g
                   id="g4409">
                  <g
                     id="g4411"
                     clip-path="url(#clipPath4413)">
                    <path
                       d="M 0,0 C 0,0 0,0 0,0 0,0 0,0 0,0 0,0 0,0 0,0 0,0 0,0 0,0 0,0 0,0 0,0 0,0 0,0 0,0 0,0 0,0 0,0 0,0 0,0 0,0 Z"
                       style="fill:#ff0000;fill-opacity:1;fill-rule:nonzero;stroke:#ff0000;stroke-width:2.45858836;stroke-linecap:butt;stroke-linejoin:round;stroke-miterlimit:10;stroke-dasharray:none;stroke-opacity:1"
                       id="path4417"
                       inkscape:connector-curvature="0" />
                  </g>
                </g>
                <g
                   id="g4419"
                   transform="translate(109.50545,-219.01091)">
                  <g
                     id="g4421">
                    <g
                       id="g4423"
                       clip-path="url(#clipPath4425)">
                      <path
                         d="M 0,0 C 0,0 0,0 0,0 0,0 0,0 0,0 0,0 0,0 0,0 0,0 0,0 0,0 0,0 0,0 0,0 0,0 0,0 0,0 0,0 0,0 0,0 0,0 0,0 0,0 Z"
                         style="fill:#ff0000;fill-opacity:1;fill-rule:nonzero;stroke:#ff0000;stroke-width:2.45858836;stroke-linecap:butt;stroke-linejoin:round;stroke-miterlimit:10;stroke-dasharray:none;stroke-opacity:1"
                         id="path4429"
                         inkscape:connector-curvature="0" />
                    </g>
                  </g>
                  <g
                     id="g4431"
                     transform="translate(109.50545,109.50545)">
                    <g
                       id="g4433">
                      <g
                         id="g4435"
                         clip-path="url(#clipPath4437)">
                        <path
                           d="M 0,0 C 0,0 0,0 0,0 0,0 0,0 0,0 0,0 0,0 0,0 0,0 0,0 0,0 0,0 0,0 0,0 0,0 0,0 0,0 0,0 0,0 0,0 0,0 0,0 0,0 Z"
                           style="fill:#ff0000;fill-opacity:1;fill-rule:nonzero;stroke:#ff0000;stroke-width:2.45858836;stroke-linecap:butt;stroke-linejoin:round;stroke-miterlimit:10;stroke-dasharray:none;stroke-opacity:1"
                           id="path4441"
                           inkscape:connector-curvature="0" />
                      </g>
                    </g>
                    <g
                       id="g4443"
                       transform="translate(-109.50545,109.50545)">
                      <g
                         id="g4445">
                        <g
                           id="g4447"
                           clip-path="url(#clipPath4449)">
                          <path
                             d="M 0,0 C 0,0 0,0 0,0 0,0 0,0 0,0 0,0 0,0 0,0 0,0 0,0 0,0 0,0 0,0 0,0 0,0 0,0 0,0 0,0 0,0 0,0 0,0 0,0 0,0 Z"
                             style="fill:#ff0000;fill-opacity:1;fill-rule:nonzero;stroke:#ff0000;stroke-width:2.45858836;stroke-linecap:butt;stroke-linejoin:round;stroke-miterlimit:10;stroke-dasharray:none;stroke-opacity:1"
                             id="path4453"
                             inkscape:connector-curvature="0" />
                        </g>
                      </g>
                      <g
                         id="g4455"
                         transform="translate(-109.50545,-109.50545)">
                        <g
                           id="g4457">
                          <g
                             id="g4459"
                             clip-path="url(#clipPath4461)">
                            <path
                               d="M 0,0 C 0,0 0,0 0,0 0,0 0,0 0,0 0,0 0,0 0,0 0,0 0,0 0,0 0,0 0,0 0,0 0,0 0,0 0,0 0,0 0,0 0,0 0,0 0,0 0,0 Z"
                               style="fill:#ff0000;fill-opacity:1;fill-rule:nonzero;stroke:#ff0000;stroke-width:2.45858836;stroke-linecap:butt;stroke-linejoin:round;stroke-miterlimit:10;stroke-dasharray:none;stroke-opacity:1"
                               id="path4465"
                               inkscape:connector-curvature="0" />
                          </g>
                        </g>
                        <g
                           id="g4467"
                           transform="translate(87.604364,21.901091)">
                          <g
                             id="g4469">
                            <g
                               id="g4471"
                               clip-path="url(#clipPath4473)">
                              <path
                                 d="M 0,0 C 0,0 0,0 0,0 0,0 0,0 0,0 0,0 0,0 0,0 0,0 0,0 0,0 0,0 0,0 0,0 0,0 0,0 0,0 0,0 0,0 0,0 0,0 0,0 0,0 Z"
                                 style="fill:#ff0000;fill-opacity:1;fill-rule:nonzero;stroke:#ff0000;stroke-width:2.45858836;stroke-linecap:butt;stroke-linejoin:round;stroke-miterlimit:10;stroke-dasharray:none;stroke-opacity:1"
                                 id="path4477"
                                 inkscape:connector-curvature="0" />
                            </g>
                          </g>
                        </g>
                      </g>
                    </g>
                  </g>
                </g>
              </g>
            </g>
          </g>
        </g>
      </g>
    </g>
    <g
       id="g4479"
       transform="matrix(0.50842184,0,0,-0.50842184,204.08864,608.39186)">
      <g
         id="g4481"
         clip-path="url(#clipPath4483)">
        <g
           id="g4487"
           transform="translate(115.704,60.853745)">
          <g
             id="g4489">
            <g
               id="g4491"
               clip-path="url(#clipPath4493)">
              <path
                 d="M 0,0 C 0,0 0,0 0,0 0,0 0,0 0,0 0,0 0,0 0,0 0,0 0,0 0,0 0,0 0,0 0,0 0,0 0,0 0,0 0,0 0,0 0,0 0,0 0,0 0,0 Z"
                 style="fill:#ff0000;fill-opacity:1;fill-rule:nonzero;stroke:#ff0000;stroke-width:2.45858836;stroke-linecap:butt;stroke-linejoin:round;stroke-miterlimit:10;stroke-dasharray:none;stroke-opacity:1"
                 id="path4497"
                 inkscape:connector-curvature="0" />
            </g>
          </g>
          <g
             id="g4499"
             transform="translate(240.912,0)">
            <g
               id="g4501">
              <g
                 id="g4503"
                 clip-path="url(#clipPath4505)">
                <path
                   d="M 0,0 C 0,0 0,0 0,0 0,0 0,0 0,0 0,0 0,0 0,0 0,0 0,0 0,0 0,0 0,0 0,0 0,0 0,0 0,0 0,0 0,0 0,0 0,0 0,0 0,0 Z"
                   style="fill:#ff0000;fill-opacity:1;fill-rule:nonzero;stroke:#ff0000;stroke-width:2.45858836;stroke-linecap:butt;stroke-linejoin:round;stroke-miterlimit:10;stroke-dasharray:none;stroke-opacity:1"
                   id="path4509"
                   inkscape:connector-curvature="0" />
              </g>
            </g>
            <g
               id="g4511"
               transform="translate(0,212.44058)">
              <g
                 id="g4513">
                <g
                   id="g4515"
                   clip-path="url(#clipPath4517)">
                  <path
                     d="M 0,0 C 0,0 0,0 0,0 0,0 0,0 0,0 0,0 0,0 0,0 0,0 0,0 0,0 0,0 0,0 0,0 0,0 0,0 0,0 0,0 0,0 0,0 0,0 0,0 0,0 Z"
                     style="fill:#ff0000;fill-opacity:1;fill-rule:nonzero;stroke:#ff0000;stroke-width:2.45858836;stroke-linecap:butt;stroke-linejoin:round;stroke-miterlimit:10;stroke-dasharray:none;stroke-opacity:1"
                     id="path4521"
                     inkscape:connector-curvature="0" />
                </g>
              </g>
              <g
                 id="g4523"
                 transform="translate(-240.912,0)">
                <g
                   id="g4525">
                  <g
                     id="g4527"
                     clip-path="url(#clipPath4529)">
                    <path
                       d="M 0,0 C 0,0 0,0 0,0 0,0 0,0 0,0 0,0 0,0 0,0 0,0 0,0 0,0 0,0 0,0 0,0 0,0 0,0 0,0 0,0 0,0 0,0 0,0 0,0 0,0 Z"
                       style="fill:#ff0000;fill-opacity:1;fill-rule:nonzero;stroke:#ff0000;stroke-width:2.45858836;stroke-linecap:butt;stroke-linejoin:round;stroke-miterlimit:10;stroke-dasharray:none;stroke-opacity:1"
                       id="path4533"
                       inkscape:connector-curvature="0" />
                  </g>
                </g>
                <g
                   id="g4535"
                   transform="translate(120.456,-212.44058)">
                  <g
                     id="g4537">
                    <g
                       id="g4539"
                       clip-path="url(#clipPath4541)">
                      <path
                         d="M 0,0 C 0,0 0,0 0,0 0,0 0,0 0,0 0,0 0,0 0,0 0,0 0,0 0,0 0,0 0,0 0,0 0,0 0,0 0,0 0,0 0,0 0,0 0,0 0,0 0,0 Z"
                         style="fill:#ff0000;fill-opacity:1;fill-rule:nonzero;stroke:#ff0000;stroke-width:2.45858836;stroke-linecap:butt;stroke-linejoin:round;stroke-miterlimit:10;stroke-dasharray:none;stroke-opacity:1"
                         id="path4545"
                         inkscape:connector-curvature="0" />
                    </g>
                  </g>
                  <g
                     id="g4547"
                     transform="translate(120.456,106.22029)">
                    <g
                       id="g4549">
                      <g
                         id="g4551"
                         clip-path="url(#clipPath4553)">
                        <path
                           d="M 0,0 C 0,0 0,0 0,0 0,0 0,0 0,0 0,0 0,0 0,0 0,0 0,0 0,0 0,0 0,0 0,0 0,0 0,0 0,0 0,0 0,0 0,0 0,0 0,0 0,0 Z"
                           style="fill:#ff0000;fill-opacity:1;fill-rule:nonzero;stroke:#ff0000;stroke-width:2.45858836;stroke-linecap:butt;stroke-linejoin:round;stroke-miterlimit:10;stroke-dasharray:none;stroke-opacity:1"
                           id="path4557"
                           inkscape:connector-curvature="0" />
                      </g>
                    </g>
                    <g
                       id="g4559"
                       transform="translate(-120.456,106.22029)">
                      <g
                         id="g4561">
                        <g
                           id="g4563"
                           clip-path="url(#clipPath4565)">
                          <path
                             d="M 0,0 C 0,0 0,0 0,0 0,0 0,0 0,0 0,0 0,0 0,0 0,0 0,0 0,0 0,0 0,0 0,0 0,0 0,0 0,0 0,0 0,0 0,0 0,0 0,0 0,0 Z"
                             style="fill:#ff0000;fill-opacity:1;fill-rule:nonzero;stroke:#ff0000;stroke-width:2.45858836;stroke-linecap:butt;stroke-linejoin:round;stroke-miterlimit:10;stroke-dasharray:none;stroke-opacity:1"
                             id="path4569"
                             inkscape:connector-curvature="0" />
                        </g>
                      </g>
                      <g
                         id="g4571"
                         transform="translate(-120.456,-106.22029)">
                        <g
                           id="g4573">
                          <g
                             id="g4575"
                             clip-path="url(#clipPath4577)">
                            <path
                               d="M 0,0 C 0,0 0,0 0,0 0,0 0,0 0,0 0,0 0,0 0,0 0,0 0,0 0,0 0,0 0,0 0,0 0,0 0,0 0,0 0,0 0,0 0,0 0,0 0,0 0,0 Z"
                               style="fill:#ff0000;fill-opacity:1;fill-rule:nonzero;stroke:#ff0000;stroke-width:2.45858836;stroke-linecap:butt;stroke-linejoin:round;stroke-miterlimit:10;stroke-dasharray:none;stroke-opacity:1"
                               id="path4581"
                               inkscape:connector-curvature="0" />
                          </g>
                        </g>
                        <g
                           id="g4583"
                           transform="translate(96.3648,21.244058)">
                          <g
                             id="g4585">
                            <g
                               id="g4587"
                               clip-path="url(#clipPath4589)">
                              <path
                                 d="M 0,0 C 0,0 0,0 0,0 0,0 0,0 0,0 0,0 0,0 0,0 0,0 0,0 0,0 0,0 0,0 0,0 0,0 0,0 0,0 0,0 0,0 0,0 0,0 0,0 0,0 Z"
                                 style="fill:#ff0000;fill-opacity:1;fill-rule:nonzero;stroke:#ff0000;stroke-width:2.45858836;stroke-linecap:butt;stroke-linejoin:round;stroke-miterlimit:10;stroke-dasharray:none;stroke-opacity:1"
                                 id="path4593"
                                 inkscape:connector-curvature="0" />
                            </g>
                          </g>
                        </g>
                      </g>
                    </g>
                  </g>
                </g>
              </g>
            </g>
          </g>
        </g>
      </g>
    </g>
    <g
       id="g4605"
       transform="matrix(0.50842184,0,0,-0.50842184,204.08864,608.39186)">
      <g
         id="g4607"
         clip-path="url(#clipPath4609)">
        <text
           transform="matrix(1,0,0,-1,115.38369,60.572495)"
           style="font-variant:normal;font-weight:normal;font-size:0px;font-family:'DejaVu Sans';-inkscape-font-specification:DejaVuSans;writing-mode:lr-tb;fill:#000000;fill-opacity:1;fill-rule:nonzero;stroke:none"
           id="text4613">
          <tspan
             x="0"
             y="0"
             id="tspan4615">0</tspan>
        </text>
      </g>
    </g>
    <g
       id="g4617"
       transform="matrix(0.50842184,0,0,-0.50842184,204.08864,608.39186)">
      <g
         id="g4619"
         clip-path="url(#clipPath4621)">
        <text
           transform="matrix(1,0,0,-1,334.3946,60.572495)"
           style="font-variant:normal;font-weight:normal;font-size:0px;font-family:'DejaVu Sans';-inkscape-font-specification:DejaVuSans;writing-mode:lr-tb;fill:#000000;fill-opacity:1;fill-rule:nonzero;stroke:none"
           id="text4625">
          <tspan
             x="0"
             y="0"
             id="tspan4627">1</tspan>
        </text>
      </g>
    </g>
    <g
       id="g4629"
       transform="matrix(0.50842184,0,0,-0.50842184,204.08864,608.39186)">
      <g
         id="g4631"
         clip-path="url(#clipPath4633)">
        <text
           transform="matrix(1,0,0,-1,334.3946,279.5834)"
           style="font-variant:normal;font-weight:normal;font-size:0px;font-family:'DejaVu Sans';-inkscape-font-specification:DejaVuSans;writing-mode:lr-tb;fill:#000000;fill-opacity:1;fill-rule:nonzero;stroke:none"
           id="text4637">
          <tspan
             x="0"
             y="0"
             id="tspan4639">2</tspan>
        </text>
      </g>
    </g>
    <g
       id="g4641"
       transform="matrix(0.50842184,0,0,-0.50842184,204.08864,608.39186)">
      <g
         id="g4643"
         clip-path="url(#clipPath4645)">
        <text
           transform="matrix(1,0,0,-1,115.38369,279.5834)"
           style="font-variant:normal;font-weight:normal;font-size:0px;font-family:'DejaVu Sans';-inkscape-font-specification:DejaVuSans;writing-mode:lr-tb;fill:#000000;fill-opacity:1;fill-rule:nonzero;stroke:none"
           id="text4649">
          <tspan
             x="0"
             y="0"
             id="tspan4651">3</tspan>
        </text>
      </g>
    </g>
    <g
       id="g4653"
       transform="matrix(0.50842184,0,0,-0.50842184,204.08864,608.39186)">
      <g
         id="g4655"
         clip-path="url(#clipPath4657)">
        <text
           transform="matrix(1,0,0,-1,224.88914,60.572495)"
           style="font-variant:normal;font-weight:normal;font-size:0px;font-family:'DejaVu Sans';-inkscape-font-specification:DejaVuSans;writing-mode:lr-tb;fill:#000000;fill-opacity:1;fill-rule:nonzero;stroke:none"
           id="text4661">
          <tspan
             x="0"
             y="0"
             id="tspan4663">4</tspan>
        </text>
      </g>
    </g>
    <g
       id="g4665"
       transform="matrix(0.50842184,0,0,-0.50842184,204.08864,608.39186)">
      <g
         id="g4667"
         clip-path="url(#clipPath4669)">
        <text
           transform="matrix(1,0,0,-1,334.3946,170.07795)"
           style="font-variant:normal;font-weight:normal;font-size:0px;font-family:'DejaVu Sans';-inkscape-font-specification:DejaVuSans;writing-mode:lr-tb;fill:#000000;fill-opacity:1;fill-rule:nonzero;stroke:none"
           id="text4673">
          <tspan
             x="0"
             y="0"
             id="tspan4675">5</tspan>
        </text>
      </g>
    </g>
    <g
       id="g4677"
       transform="matrix(0.50842184,0,0,-0.50842184,204.08864,608.39186)">
      <g
         id="g4679"
         clip-path="url(#clipPath4681)">
        <text
           transform="matrix(1,0,0,-1,224.88914,279.5834)"
           style="font-variant:normal;font-weight:normal;font-size:0px;font-family:'DejaVu Sans';-inkscape-font-specification:DejaVuSans;writing-mode:lr-tb;fill:#000000;fill-opacity:1;fill-rule:nonzero;stroke:none"
           id="text4685">
          <tspan
             x="0"
             y="0"
             id="tspan4687">6</tspan>
        </text>
      </g>
    </g>
    <g
       id="g4689"
       transform="matrix(0.50842184,0,0,-0.50842184,204.08864,608.39186)">
      <g
         id="g4691"
         clip-path="url(#clipPath4693)">
        <text
           transform="matrix(1,0,0,-1,115.38369,170.07795)"
           style="font-variant:normal;font-weight:normal;font-size:0px;font-family:'DejaVu Sans';-inkscape-font-specification:DejaVuSans;writing-mode:lr-tb;fill:#000000;fill-opacity:1;fill-rule:nonzero;stroke:none"
           id="text4697">
          <tspan
             x="0"
             y="0"
             id="tspan4699">7</tspan>
        </text>
      </g>
    </g>
    <g
       id="g4701"
       transform="matrix(0.50842184,0,0,-0.50842184,204.08864,608.39186)">
      <g
         id="g4703"
         clip-path="url(#clipPath4705)">
        <text
           transform="matrix(1,0,0,-1,202.98805,191.97904)"
           style="font-variant:normal;font-weight:normal;font-size:0px;font-family:'DejaVu Sans';-inkscape-font-specification:DejaVuSans;writing-mode:lr-tb;fill:#000000;fill-opacity:1;fill-rule:nonzero;stroke:none"
           id="text4709">
          <tspan
             x="0"
             y="0"
             id="tspan4711">8</tspan>
        </text>
      </g>
    </g>
    <g
       id="g4713"
       transform="matrix(0.50842184,0,0,-0.50842184,204.08864,608.39186)">
      <g
         id="g4715"
         clip-path="url(#clipPath4717)">
        <text
           transform="matrix(1,0,0,-1,115.38369,60.572495)"
           style="font-variant:normal;font-weight:normal;font-size:0px;font-family:'DejaVu Sans';-inkscape-font-specification:DejaVuSans;writing-mode:lr-tb;fill:#000000;fill-opacity:1;fill-rule:nonzero;stroke:none"
           id="text4721">
          <tspan
             x="0"
             y="0"
             id="tspan4723">0</tspan>
        </text>
      </g>
    </g>
    <g
       id="g4725"
       transform="matrix(0.50842184,0,0,-0.50842184,204.08864,608.39186)">
      <g
         id="g4727"
         clip-path="url(#clipPath4729)">
        <text
           transform="matrix(1,0,0,-1,356.29569,60.572495)"
           style="font-variant:normal;font-weight:normal;font-size:0px;font-family:'DejaVu Sans';-inkscape-font-specification:DejaVuSans;writing-mode:lr-tb;fill:#000000;fill-opacity:1;fill-rule:nonzero;stroke:none"
           id="text4733">
          <tspan
             x="0"
             y="0"
             id="tspan4735">1</tspan>
        </text>
      </g>
    </g>
    <g
       id="g4737"
       transform="matrix(0.50842184,0,0,-0.50842184,204.08864,608.39186)">
      <g
         id="g4739"
         clip-path="url(#clipPath4741)">
        <text
           transform="matrix(1,0,0,-1,356.29569,273.01308)"
           style="font-variant:normal;font-weight:normal;font-size:0px;font-family:'DejaVu Sans';-inkscape-font-specification:DejaVuSans;writing-mode:lr-tb;fill:#000000;fill-opacity:1;fill-rule:nonzero;stroke:none"
           id="text4745">
          <tspan
             x="0"
             y="0"
             id="tspan4747">2</tspan>
        </text>
      </g>
    </g>
    <g
       id="g4749"
       transform="matrix(0.50842184,0,0,-0.50842184,204.08864,608.39186)">
      <g
         id="g4751"
         clip-path="url(#clipPath4753)">
        <text
           transform="matrix(1,0,0,-1,115.38369,273.01308)"
           style="font-variant:normal;font-weight:normal;font-size:0px;font-family:'DejaVu Sans';-inkscape-font-specification:DejaVuSans;writing-mode:lr-tb;fill:#000000;fill-opacity:1;fill-rule:nonzero;stroke:none"
           id="text4757">
          <tspan
             x="0"
             y="0"
             id="tspan4759">3</tspan>
        </text>
      </g>
    </g>
    <g
       id="g4761"
       transform="matrix(0.50842184,0,0,-0.50842184,204.08864,608.39186)">
      <g
         id="g4763"
         clip-path="url(#clipPath4765)">
        <text
           transform="matrix(1,0,0,-1,235.83969,60.572495)"
           style="font-variant:normal;font-weight:normal;font-size:0px;font-family:'DejaVu Sans';-inkscape-font-specification:DejaVuSans;writing-mode:lr-tb;fill:#000000;fill-opacity:1;fill-rule:nonzero;stroke:none"
           id="text4769">
          <tspan
             x="0"
             y="0"
             id="tspan4771">4</tspan>
        </text>
      </g>
    </g>
    <g
       id="g4773"
       transform="matrix(0.50842184,0,0,-0.50842184,204.08864,608.39186)">
      <g
         id="g4775"
         clip-path="url(#clipPath4777)">
        <text
           transform="matrix(1,0,0,-1,356.29569,166.79279)"
           style="font-variant:normal;font-weight:normal;font-size:0px;font-family:'DejaVu Sans';-inkscape-font-specification:DejaVuSans;writing-mode:lr-tb;fill:#000000;fill-opacity:1;fill-rule:nonzero;stroke:none"
           id="text4781">
          <tspan
             x="0"
             y="0"
             id="tspan4783">5</tspan>
        </text>
      </g>
    </g>
    <g
       id="g4785"
       transform="matrix(0.50842184,0,0,-0.50842184,204.08864,608.39186)">
      <g
         id="g4787"
         clip-path="url(#clipPath4789)">
        <text
           transform="matrix(1,0,0,-1,235.83969,273.01308)"
           style="font-variant:normal;font-weight:normal;font-size:0px;font-family:'DejaVu Sans';-inkscape-font-specification:DejaVuSans;writing-mode:lr-tb;fill:#000000;fill-opacity:1;fill-rule:nonzero;stroke:none"
           id="text4793">
          <tspan
             x="0"
             y="0"
             id="tspan4795">6</tspan>
        </text>
      </g>
    </g>
    <g
       id="g4797"
       transform="matrix(0.50842184,0,0,-0.50842184,204.08864,608.39186)">
      <g
         id="g4799"
         clip-path="url(#clipPath4801)">
        <text
           transform="matrix(1,0,0,-1,115.38369,166.79279)"
           style="font-variant:normal;font-weight:normal;font-size:0px;font-family:'DejaVu Sans';-inkscape-font-specification:DejaVuSans;writing-mode:lr-tb;fill:#000000;fill-opacity:1;fill-rule:nonzero;stroke:none"
           id="text4805">
          <tspan
             x="0"
             y="0"
             id="tspan4807">7</tspan>
        </text>
      </g>
    </g>
    <g
       id="g4809"
       transform="matrix(0.50842184,0,0,-0.50842184,204.08864,608.39186)">
      <g
         id="g4811"
         clip-path="url(#clipPath4813)">
        <text
           transform="matrix(1,0,0,-1,211.74849,188.03684)"
           style="font-variant:normal;font-weight:normal;font-size:0px;font-family:'DejaVu Sans';-inkscape-font-specification:DejaVuSans;writing-mode:lr-tb;fill:#000000;fill-opacity:1;fill-rule:nonzero;stroke:none"
           id="text4817">
          <tspan
             x="0"
             y="0"
             id="tspan4819">8</tspan>
        </text>
      </g>
    </g>
  </g>
</svg>
